<svg width="26" height="26" viewBox="0 0 26 26" fill="none" xmlns="http://www.w3.org/2000/svg">
<path d="M23.2383 20.7999H21.4914V19.053C21.4914 18.5655 21.0852 18.1187 20.557 18.1187C20.0289 18.1187 19.6227 18.5249 19.6227 19.053V20.7999H17.8758C17.3883 20.7999 16.9414 21.2062 16.9414 21.7343C16.9414 22.2624 17.3477 22.6687 17.8758 22.6687H19.6227V24.3749C19.6227 24.8624 20.0289 25.3093 20.557 25.3093C21.0852 25.3093 21.4914 24.903 21.4914 24.3749V22.628H23.2383C23.7258 22.628 24.1727 22.2218 24.1727 21.6937C24.1727 21.1655 23.7258 20.7999 23.2383 20.7999Z" fill="#111928"/>
<path d="M15.7223 23.4812H4.38789C3.98164 23.4812 3.65664 23.1562 3.65664 22.75V3.24995C3.65664 2.8437 3.98164 2.5187 4.38789 2.5187H13.5691V7.7187C13.5691 8.2062 13.9754 8.65308 14.5035 8.65308H19.6629V16.25C19.6629 16.7375 20.0691 17.1843 20.5973 17.1843C21.1254 17.1843 21.5316 16.7781 21.5316 16.25V7.96245C21.5316 7.51558 21.3285 7.0687 21.0035 6.7437L15.3566 1.2187C15.0316 0.893701 14.5848 0.731201 14.1379 0.731201H4.38789C3.00664 0.731201 1.86914 1.8687 1.86914 3.24995V22.75C1.86914 24.1312 3.00664 25.3093 4.42852 25.3093H15.7629C16.2504 25.3093 16.6973 24.9031 16.6973 24.375C16.6973 23.8468 16.2504 23.4812 15.7223 23.4812ZM15.3973 3.8187L18.4441 6.82495H15.3973V3.8187Z" fill="#111928"/>
</svg>
