<svg width="22" height="22" viewBox="0 0 22 22" fill="none" xmlns="http://www.w3.org/2000/svg">
<g clip-path="url(#clip0_62_569)">
<path d="M14.507 10.2092H11.757V7.49355C11.757 7.08105 11.4133 6.7373 10.9664 6.7373C10.5539 6.7373 10.2102 7.08105 10.2102 7.52793V10.2436H7.49453C7.08203 10.2436 6.73828 10.5873 6.73828 11.0342C6.73828 11.4467 7.08203 11.7904 7.52891 11.7904H10.2445V14.5061C10.2445 14.9186 10.5883 15.2623 11.0352 15.2623C11.4477 15.2623 11.7914 14.9186 11.7914 14.4717V11.7561H14.507C14.9195 11.7561 15.2633 11.4123 15.2633 10.9654C15.2633 10.5529 14.9195 10.2092 14.507 10.2092Z" fill="#6B7280"/>
<path d="M11.0004 0.618652C5.25977 0.618652 0.619141 5.25928 0.619141 10.9999C0.619141 16.7405 5.29414 21.4155 11.0348 21.4155C16.7754 21.4155 21.4504 16.7405 21.4504 10.9999C21.416 5.25928 16.741 0.618652 11.0004 0.618652ZM11.0004 19.8687C6.11914 19.8687 2.16602 15.8812 2.16602 10.9999C2.16602 6.11865 6.11914 2.16553 11.0004 2.16553C15.8816 2.16553 19.8691 6.11865 19.8691 10.9999C19.8691 15.8812 15.8816 19.8687 11.0004 19.8687Z" fill="#6B7280"/>
</g>
<defs>
<clipPath id="clip0_62_569">
<rect width="22" height="22" fill="white"/>
</clipPath>
</defs>
</svg>
