<svg width="24" height="24" viewBox="0 0 24 24" fill="none" xmlns="http://www.w3.org/2000/svg">
<path d="M20.5873 6.2248L15.4123 1.1248C15.1123 0.824805 14.6998 0.674805 14.2873 0.674805H5.2873C4.0123 0.674805 2.9248 1.7248 2.9248 3.0373V21.0373C2.9248 22.3123 3.9748 23.3998 5.2873 23.3998H18.6748C19.9498 23.3998 21.0373 22.3498 21.0373 21.0373V7.3498C21.0373 6.9373 20.8873 6.5248 20.5873 6.2248ZM15.4498 3.5248L18.2623 6.2998H15.4498V3.5248ZM18.7123 21.6748H5.2873C4.9123 21.6748 4.6123 21.3748 4.6123 20.9998V2.9998C4.6123 2.6248 4.9123 2.3248 5.2873 2.3248H13.7623V7.1248C13.7623 7.5748 14.1373 7.9873 14.6248 7.9873H19.3873V20.9998C19.3498 21.3748 19.0498 21.6748 18.7123 21.6748Z" fill="#111928"/>
<path d="M14.5873 10.9121H8.09981C7.64981 10.9121 7.2373 11.2871 7.2373 11.7746C7.2373 12.2621 7.61231 12.6371 8.09981 12.6371H14.5873C15.0373 12.6371 15.4498 12.2621 15.4498 11.7746C15.4498 11.2871 15.0748 10.9121 14.5873 10.9121Z" fill="#111928"/>
<path d="M14.5873 15.0371H8.09981C7.64981 15.0371 7.2373 15.4121 7.2373 15.8996C7.2373 16.3871 7.61231 16.7621 8.09981 16.7621H14.5873C15.0373 16.7621 15.4498 16.3871 15.4498 15.8996C15.4498 15.4121 15.0748 15.0371 14.5873 15.0371Z" fill="#111928"/>
</svg>
